<svg height="512" viewBox="0 0 512 512" style="width:30px;height:30px" xmlns="http://www.w3.org/2000/svg" xmlns:xlink="http://www.w3.org/1999/xlink"><linearGradient id="linear-gradient" gradientUnits="userSpaceOnUse" x1="113.277" x2="498.723" y1="448.856" y2="63.409"><stop offset="0" stop-color="#41dfd0"/><stop offset="1" stop-color="#ee83ef"/></linearGradient><g id="gradient"><path d="m314.082 208h-2.082v-48a8 8 0 0 0 -8-8v-24a8 8 0 0 0 -8-8v-56a8 8 0 0 0 -8-8h-64a8 8 0 0 0 -8 8v56a8 8 0 0 0 -8 8v24a8 8 0 0 0 -8 8v48h-2.082a53.979 53.979 0 0 0 -53.918 53.918v206.082a28.032 28.032 0 0 0 28 28h168a28.032 28.032 0 0 0 28-28v-206.082a53.98 53.98 0 0 0 -53.918-53.918zm-18.082-40v40h-16v-40zm-64-96h48v16h-8a8 8 0 0 0 0 16h8v16h-48zm-8 64h64v16h-64zm40 32v40h-16v-40zm-48 0h16v40h-16zm136 300a12.013 12.013 0 0 1 -12 12h-168a12.013 12.013 0 0 1 -12-12v-180h192zm0-196h-192v-10.082a37.961 37.961 0 0 1 37.918-37.918h116.164a37.961 37.961 0 0 1 37.918 37.918zm-128 128h8v8a8 8 0 0 0 8 8h32a8 8 0 0 0 8-8v-8h8a8 8 0 0 0 8-8v-32a8 8 0 0 0 -8-8h-8v-8a8 8 0 0 0 -8-8h-32a8 8 0 0 0 -8 8v8h-8a8 8 0 0 0 -8 8v32a8 8 0 0 0 8 8zm8-32h8a8 8 0 0 0 8-8v-8h16v8a8 8 0 0 0 8 8h8v16h-8a8 8 0 0 0 -8 8v8h-16v-8a8 8 0 0 0 -8-8h-8zm24 80a72 72 0 1 0 -72-72 72.081 72.081 0 0 0 72 72zm0-128a56 56 0 1 1 -56 56 56.064 56.064 0 0 1 56-56zm138.451-256.375a8 8 0 0 1 2.408-11.054c6.386-4.1 12.727-8.448 18.849-12.924a8 8 0 0 1 9.442 12.917c-6.38 4.664-12.99 9.2-19.645 13.47a8 8 0 0 1 -11.054-2.409zm-41.176 21.953a8 8 0 0 1 3.725-10.684c6.831-3.3 13.65-6.854 20.267-10.56a8 8 0 1 1 7.818 13.96c-6.9 3.862-14 7.565-21.124 11.006a7.994 7.994 0 0 1 -10.684-3.722zm79.415-48.71a8 8 0 0 1 1.061-11.268q2.487-2.058 4.939-4.161l4.1-3.517a8 8 0 1 1 10.412 12.148l-4.1 3.517q-2.557 2.191-5.149 4.338a8 8 0 0 1 -11.264-1.061zm-5.8 113.747a8 8 0 0 1 -11.179 1.738c-6.122-4.476-12.463-8.824-18.849-12.924a8 8 0 0 1 8.646-13.463c6.655 4.274 13.265 8.806 19.645 13.47a8 8 0 0 1 1.734 11.179zm-38.736-26.015a7.995 7.995 0 0 1 -10.889 3.071c-6.617-3.706-13.436-7.259-20.267-10.56a8 8 0 1 1 6.961-14.406c7.121 3.441 14.228 7.144 21.124 11.006a8 8 0 0 1 3.071 10.889zm65.92 48.611a8 8 0 0 1 -11.28.868l-4.1-3.517q-2.452-2.1-4.939-4.161a8 8 0 0 1 10.2-12.325q2.592 2.145 5.149 4.338l4.1 3.517a8 8 0 0 1 .87 11.275zm-50.874-77.211a8 8 0 0 1 -8 8h-19.2a8 8 0 0 1 0-16h19.2a8 8 0 0 1 8 8zm30.4-8a8 8 0 0 1 0 16h-19.2a8 8 0 0 1 0-16zm46.4 8a8 8 0 0 1 -8 8h-16a8 8 0 0 1 0-16h16a8 8 0 0 1 8 8zm-256 152a8 8 0 0 1 -8 8h-8a8 8 0 0 1 0-16h8a8 8 0 0 1 8 8zm56 0a8 8 0 0 1 -8 8h-24a8 8 0 0 1 0-16h24a8 8 0 0 1 8 8zm40.509-149.191a8 8 0 0 1 4.682-10.3c3.64-1.364 7.321-2.81 10.939-4.3a8 8 0 0 1 9.727 11.791 8 8 0 0 1 -9.727 11.787c-3.618-1.486-7.3-2.932-10.939-4.3-.111-.042-.2-.095-.3-.141a7.956 7.956 0 0 1 -4.382-4.537z" fill="url(#linear-gradient)"/></g>
</svg>