<svg height="480pt" viewBox="0 0 480 480" width="480pt" xmlns="http://www.w3.org/2000/svg" xmlns:xlink="http://www.w3.org/1999/xlink"><linearGradient id="linear0" gradientUnits="userSpaceOnUse" x1="240" x2="240" y1="480" y2="0"><stop offset="0" stop-color="#12c2e9"/><stop offset=".5" stop-color="#c471ed"/><stop offset="1" stop-color="#f64f59"/></linearGradient><path d="m341.65625 2.34375c-1.5-1.5-3.535156-2.34375-5.65625-2.34375h-192c-2.121094 0-4.15625.84375-5.65625 2.34375l-136 136c-1.5 1.5-2.34375 3.535156-2.34375 5.65625v192c0 2.121094.84375 4.15625 2.34375 5.65625l136 136c1.5 1.5 3.535156 2.34375 5.65625 2.34375h192c2.121094 0 4.15625-.84375 5.65625-2.34375l136-136c1.5-1.5 2.34375-3.535156 2.34375-5.65625v-192c0-2.121094-.84375-4.15625-2.34375-5.65625zm122.34375 330.34375-131.3125 131.3125h-185.375l-131.3125-131.3125v-185.375l131.3125-131.3125h185.375l131.3125 131.3125zm-141.238281-300.6875h-165.523438c-2.121093 0-4.15625.84375-5.652343 2.34375l-117.242188 117.242188c-1.5 1.496093-2.34375 3.53125-2.34375 5.652343v165.523438c0 2.121093.84375 4.15625 2.34375 5.652343l117.242188 117.242188c1.496093 1.5 3.53125 2.34375 5.652343 2.34375h165.523438c2.121093 0 4.15625-.84375 5.652343-2.34375l117.242188-117.242188c1.5-1.496093 2.34375-3.53125 2.34375-5.652343v-165.523438c0-2.121093-.84375-4.15625-2.34375-5.652343l-117.242188-117.242188c-1.496093-1.5-3.53125-2.34375-5.652343-2.34375zm109.238281 287.449219-112.550781 112.550781h-158.898438l-112.550781-112.550781v-158.898438l112.550781-112.550781h158.898438l112.550781 112.550781zm-118.792969-112.351563-45.527343-6.960937-20.441407-43.535157c-1.316406-2.808593-4.136719-4.597656-7.238281-4.597656s-5.921875 1.789063-7.238281 4.597656l-20.441407 43.535157-45.527343 6.960937c-2.960938.453125-5.421875 2.523438-6.375 5.363282-.949219 2.839843-.234375 5.976562 1.855469 8.125l33.183593 34.007812-7.847656 48.117188c-.492187 3.023437.785156 6.058593 3.285156 7.824218 2.503907 1.761719 5.792969 1.941406 8.472657.464844l40.632812-22.464844 40.632812 22.464844c1.179688.65625 2.511719 1 3.863282 1 2.347656 0 4.574218-1.03125 6.09375-2.816406 1.523437-1.789063 2.179687-4.15625 1.800781-6.472656l-7.847656-48.117188 33.183593-34.007812c2.089844-2.148438 2.804688-5.285157 1.855469-8.125-.953125-2.839844-3.414062-4.910157-6.375-5.363282zm-42.933593 39.199219c-1.773438 1.816406-2.578126 4.367187-2.167969 6.871094l5.847656 35.839843-30.082031-16.625c-2.410156-1.332031-5.332032-1.332031-7.742188 0l-30.082031 16.625 5.847656-35.839843c.410157-2.503907-.394531-5.054688-2.167969-6.871094l-25.125-25.761719 34.398438-5.246094c2.636719-.402343 4.898438-2.09375 6.03125-4.503906l15.007812-32 15.007813 32c1.136719 2.410156 3.398437 4.101563 6.03125 4.503906l34.363281 5.246094zm0 0" fill="url(#linear0)"/></svg>